<svg width="100%" height="100%" viewBox="0 0 122 37" fill="none" xmlns="http://www.w3.org/2000/svg">
<path d="M2.012 36.892C1.80667 36.892 1.572 36.7893 1.308 36.584C1.044 36.3787 0.912 36.1587 0.912 35.924C0.912 35.66 1.20533 34.9853 1.792 33.9C2.37867 32.8147 3.31733 31.1867 4.608 29.016C5.89867 26.8453 7.58533 24.0293 9.668 20.568L15.432 10.932C15.7547 10.3453 16.1507 9.656 16.62 8.864C17.0893 8.072 17.6613 7.13333 18.336 6.048C18.512 5.784 18.7027 5.652 18.908 5.652C19.1133 5.652 19.3187 5.75466 19.524 5.96C19.7293 6.136 19.832 6.32667 19.832 6.532C19.832 6.64933 19.0987 7.95467 17.632 10.448C16.1653 12.912 13.9507 16.5933 10.988 21.492C9.87333 23.34 8.656 25.3787 7.336 27.608C6.04533 29.8373 4.66667 32.2573 3.2 34.868C11.7067 32.58 18.248 31.436 22.824 31.436C24.2027 31.436 25.3467 31.6707 26.256 32.14C27.1947 32.58 27.664 33.02 27.664 33.46C27.664 33.9587 27.4147 34.208 26.916 34.208C26.5053 34.208 26.3 33.988 26.3 33.548V33.416C26.0067 33.2693 25.508 33.152 24.804 33.064C24.1 32.976 23.2933 32.932 22.384 32.932C21.2693 32.932 20.008 33.0347 18.6 33.24C17.192 33.416 15.7547 33.6507 14.288 33.944C12.8507 34.208 11.5013 34.4867 10.24 34.78C9.008 35.044 7.83467 35.3227 6.72 35.616C5.63467 35.9387 4.62267 36.2173 3.684 36.452C3.12667 36.5693 2.716 36.672 2.452 36.76C2.21733 36.848 2.07067 36.892 2.012 36.892ZM40.3852 17.664C39.8865 17.664 39.6372 17.4147 39.6372 16.916C39.6372 16.7693 39.7398 16.5053 39.9452 16.124C40.1505 15.7133 40.3852 15.3027 40.6492 14.892C40.9132 14.4813 41.1185 14.2027 41.2652 14.056C41.7638 13.4987 42.1452 13.1467 42.4092 13C42.7025 12.8533 42.9665 12.78 43.2012 12.78C43.8172 12.78 44.1252 13.0587 44.1252 13.616C44.1252 13.8213 43.9932 14.0707 43.7292 14.364C43.4945 14.628 43.2158 14.8773 42.8932 15.112C42.4238 15.4053 42.1305 15.64 42.0132 15.816L41.0452 17.18C41.0158 17.2973 40.9425 17.4147 40.8252 17.532C40.7372 17.62 40.5905 17.664 40.3852 17.664ZM32.9052 35.484C32.0838 35.484 31.4825 35.3227 31.1012 35C30.7492 34.6773 30.5732 34.1933 30.5732 33.548C30.5732 32.932 30.7638 32.096 31.1452 31.04C31.5265 29.9547 32.0105 28.796 32.5972 27.564C33.2132 26.332 33.8585 25.1587 34.5332 24.044C35.2078 22.9293 35.8532 22.02 36.4692 21.316C37.1145 20.5827 37.6278 20.216 38.0092 20.216C38.5372 20.216 38.8012 20.4507 38.8012 20.92C38.8012 21.2133 38.5518 21.7707 38.0532 22.592C37.5545 23.4133 37.0118 24.264 36.4252 25.144C36.1905 25.4667 35.8678 25.9067 35.4572 26.464C35.0465 27.0213 34.6505 27.5493 34.2692 28.048C33.8878 28.5173 33.6385 28.84 33.5212 29.016C33.2278 29.456 32.9198 30.1747 32.5972 31.172C32.2452 32.1693 32.0692 32.932 32.0692 33.46C32.0692 33.6947 32.1132 33.8707 32.2012 33.988C32.3185 34.1053 32.5678 34.164 32.9492 34.164C33.6825 34.164 34.5038 33.9293 35.4132 33.46C36.3225 32.9907 37.2465 32.404 38.1852 31.7C39.1238 30.9667 40.0038 30.2187 40.8252 29.456C41.6758 28.6933 42.3945 28.0333 42.9812 27.476C43.0985 27.3587 43.2745 27.3 43.5092 27.3C43.9492 27.3 44.1692 27.476 44.1692 27.828C44.1692 28.1507 43.9638 28.5173 43.5532 28.928C42.7612 29.72 42.0278 30.424 41.3532 31.04C40.6785 31.656 40.0332 32.1987 39.4172 32.668C38.4492 33.372 37.3785 34.0173 36.2052 34.604C35.0318 35.1907 33.9318 35.484 32.9052 35.484ZM40.1273 36.1C39.658 36.1 39.4233 35.9093 39.4233 35.528C39.4233 35.352 39.4673 35.176 39.5553 35C39.6727 34.824 39.7607 34.6773 39.8193 34.56L43.8233 26.464C45.5247 23.0027 46.3753 21.0813 46.3753 20.7C46.3753 20.2893 46.5807 20.084 46.9913 20.084C47.5487 20.084 47.8273 20.3627 47.8273 20.92C47.8273 21.2133 47.6953 21.6827 47.4313 22.328C47.1673 22.9733 46.83 23.7213 46.4193 24.572C45.7153 26.0973 45.1287 27.2707 44.6593 28.092C45.5393 27.0653 46.434 26.0973 47.3433 25.188C48.2527 24.2787 49.1767 23.4133 50.1153 22.592C52.902 20.1573 55.0433 18.94 56.5393 18.94C57.566 18.94 58.0793 19.424 58.0793 20.392C58.0793 21.3307 57.7713 21.8 57.1553 21.8C56.862 21.8 56.642 21.5507 56.4953 21.052C56.4073 20.7 56.202 20.524 55.8793 20.524C55.3807 20.524 54.4127 21.0667 52.9753 22.152C51.3913 23.3253 49.7927 24.7187 48.1793 26.332C46.5953 27.9453 44.9087 29.9987 43.1193 32.492L40.9193 35.572C40.802 35.7187 40.6847 35.836 40.5673 35.924C40.4793 36.0413 40.3327 36.1 40.1273 36.1ZM65.2641 17.664C64.7654 17.664 64.5161 17.4147 64.5161 16.916C64.5161 16.7693 64.6187 16.5053 64.8241 16.124C65.0294 15.7133 65.2641 15.3027 65.5281 14.892C65.7921 14.4813 65.9974 14.2027 66.1441 14.056C66.6427 13.4987 67.0241 13.1467 67.2881 13C67.5814 12.8533 67.8454 12.78 68.0801 12.78C68.6961 12.78 69.0041 13.0587 69.0041 13.616C69.0041 13.8213 68.8721 14.0707 68.6081 14.364C68.3734 14.628 68.0947 14.8773 67.7721 15.112C67.3027 15.4053 67.0094 15.64 66.8921 15.816L65.9241 17.18C65.8947 17.2973 65.8214 17.4147 65.7041 17.532C65.6161 17.62 65.4694 17.664 65.2641 17.664ZM57.7841 35.484C56.9627 35.484 56.3614 35.3227 55.9801 35C55.6281 34.6773 55.4521 34.1933 55.4521 33.548C55.4521 32.932 55.6427 32.096 56.0241 31.04C56.4054 29.9547 56.8894 28.796 57.4761 27.564C58.0921 26.332 58.7374 25.1587 59.4121 24.044C60.0867 22.9293 60.7321 22.02 61.3481 21.316C61.9934 20.5827 62.5067 20.216 62.8881 20.216C63.4161 20.216 63.6801 20.4507 63.6801 20.92C63.6801 21.2133 63.4307 21.7707 62.9321 22.592C62.4334 23.4133 61.8907 24.264 61.3041 25.144C61.0694 25.4667 60.7467 25.9067 60.3361 26.464C59.9254 27.0213 59.5294 27.5493 59.1481 28.048C58.7667 28.5173 58.5174 28.84 58.4001 29.016C58.1067 29.456 57.7987 30.1747 57.4761 31.172C57.1241 32.1693 56.9481 32.932 56.9481 33.46C56.9481 33.6947 56.9921 33.8707 57.0801 33.988C57.1974 34.1053 57.4467 34.164 57.8281 34.164C58.5614 34.164 59.3827 33.9293 60.2921 33.46C61.2014 32.9907 62.1254 32.404 63.0641 31.7C64.0027 30.9667 64.8827 30.2187 65.7041 29.456C66.5547 28.6933 67.2734 28.0333 67.8601 27.476C67.9774 27.3587 68.1534 27.3 68.3881 27.3C68.8281 27.3 69.0481 27.476 69.0481 27.828C69.0481 28.1507 68.8427 28.5173 68.4321 28.928C67.6401 29.72 66.9067 30.424 66.2321 31.04C65.5574 31.656 64.9121 32.1987 64.2961 32.668C63.3281 33.372 62.2574 34.0173 61.0841 34.604C59.9107 35.1907 58.8107 35.484 57.7841 35.484ZM71.9583 35.616C70.4036 35.616 69.1863 35.1613 68.3063 34.252C67.4263 33.3427 66.9863 32.1253 66.9863 30.6C66.9863 27.96 68.2329 25.0853 70.7263 21.976C72.0169 20.392 73.3223 19.1893 74.6423 18.368C75.9916 17.5173 77.2529 17.092 78.4263 17.092C79.4529 17.092 80.2449 17.444 80.8023 18.148C81.3596 18.852 81.6383 19.732 81.6383 20.788C81.6383 21.4333 81.5503 22.0933 81.3743 22.768C81.2569 23.2373 81.0223 23.472 80.6703 23.472C80.1129 23.472 79.8343 23.164 79.8343 22.548C79.8343 22.284 79.8783 21.9467 79.9663 21.536C80.0836 21.096 80.1423 20.6707 80.1423 20.26C80.1423 19.0867 79.5703 18.5 78.4263 18.5C77.8103 18.5 77.0623 18.72 76.1823 19.16C75.3316 19.6 74.4809 20.1867 73.6303 20.92C72.7796 21.624 72.0316 22.4307 71.3863 23.34C69.4209 26.0093 68.4383 28.4 68.4383 30.512C68.4383 32.9467 69.5383 34.164 71.7383 34.164C73.1169 34.164 74.4369 33.9587 75.6983 33.548C76.9596 33.108 78.4409 32.2133 80.1423 30.864C81.1983 30.0427 81.9903 29.3827 82.5183 28.884C83.0463 28.3853 83.6183 27.8573 84.2343 27.3C84.4103 27.1827 84.5716 27.124 84.7183 27.124C84.8649 27.124 85.0116 27.168 85.1583 27.256C85.3049 27.344 85.3783 27.476 85.3783 27.652C85.3783 27.9747 85.0849 28.4293 84.4983 29.016C83.9996 29.4853 83.4716 29.984 82.9143 30.512C82.3569 31.0107 81.4769 31.7147 80.2743 32.624C78.9836 33.6213 77.6049 34.3693 76.1383 34.868C74.7009 35.3667 73.3076 35.616 71.9583 35.616ZM84.7664 35.44C83.065 35.44 82.2144 34.6333 82.2144 33.02C82.2144 31.964 82.4637 30.8347 82.9624 29.632C83.4904 28.4 84.1944 27.212 85.0744 26.068C85.9544 24.8947 86.937 23.8387 88.0224 22.9C89.1077 21.932 90.2224 21.1693 91.3664 20.612C92.5104 20.0253 93.6104 19.732 94.6664 19.732C96.5437 19.732 97.4824 20.656 97.4824 22.504C97.4824 23.7067 97.189 24.308 96.6024 24.308C96.0744 24.308 95.8104 24.0587 95.8104 23.56C95.8104 23.3547 95.8544 23.1493 95.9424 22.944C96.0597 22.7093 96.1184 22.46 96.1184 22.196C96.1184 21.3747 95.561 20.964 94.4464 20.964C92.657 20.964 90.413 22.328 87.7144 25.056C87.069 25.7307 86.4384 26.5227 85.8224 27.432C85.2064 28.3413 84.693 29.2653 84.2824 30.204C83.901 31.1133 83.7104 31.9787 83.7104 32.8C83.7104 33.592 84.1504 33.988 85.0304 33.988C85.793 33.988 86.5997 33.7533 87.4504 33.284C88.3304 32.8147 89.093 32.3307 89.7384 31.832C91.029 30.864 92.349 29.544 93.6984 27.872C93.9037 27.6373 94.1677 27.3293 94.4904 26.948C94.813 26.5667 95.1797 26.1413 95.5904 25.672C95.737 25.5253 95.913 25.452 96.1184 25.452C96.5877 25.452 96.8224 25.6867 96.8224 26.156L95.1504 28.664C94.0357 30.3067 93.4784 31.656 93.4784 32.712C93.4784 33.4747 93.845 33.856 94.5784 33.856C95.1944 33.856 95.869 33.6947 96.6024 33.372C97.3357 33.0493 97.937 32.7267 98.4064 32.404C99.345 31.788 100.328 31.0253 101.354 30.116C102.381 29.1773 103.364 28.2387 104.302 27.3C104.42 27.1827 104.596 27.124 104.83 27.124C105.27 27.124 105.49 27.3 105.49 27.652C105.49 27.9747 105.285 28.3413 104.874 28.752C103.701 29.9253 102.645 30.9373 101.706 31.788C100.768 32.6093 99.873 33.284 99.0224 33.812C98.465 34.1347 97.7757 34.472 96.9544 34.824C96.133 35.176 95.1944 35.352 94.1384 35.352C92.701 35.352 91.9824 34.5893 91.9824 33.064C91.9824 32.4773 92.0557 31.9933 92.2024 31.612C89.533 34.164 87.0544 35.44 84.7664 35.44ZM107.651 36.188C106.302 36.188 105.26 35.7773 104.527 34.956C103.823 34.1053 103.471 32.9907 103.471 31.612C103.471 30.6147 103.647 29.412 103.999 28.004C104.615 25.628 105.656 22.8707 107.123 19.732C108.267 17.356 109.499 15.024 110.819 12.736C112.139 10.4187 113.591 8.14533 115.175 5.916C117.698 2.33733 119.458 0.547998 120.455 0.547998C121.1 0.547998 121.423 0.723998 121.423 1.076C121.423 1.57467 120.602 2.82133 118.959 4.816L115.879 8.556C113.21 11.7827 111.024 15.0827 109.323 18.456C107.651 21.8293 106.346 25.2027 105.407 28.576C105.143 29.544 105.011 30.4533 105.011 31.304C105.011 33.5333 105.92 34.648 107.739 34.648C108.384 34.648 109.044 34.4573 109.719 34.076C110.394 33.724 110.76 33.548 110.819 33.548C111.171 33.548 111.347 33.7973 111.347 34.296C111.347 34.736 111.186 35.0733 110.863 35.308C109.866 35.8947 108.795 36.188 107.651 36.188Z" fill="url(#paint0_linear_130_289)"/>
<defs>
<linearGradient id="paint0_linear_130_289" x1="56.5" y1="-5" x2="56.5" y2="49" gradientUnits="userSpaceOnUse">
<stop offset="0.565625" stop-color="#FFB5C7"/>
<stop offset="0.810417" stop-color="#FF89A6" stop-opacity="0"/>
</linearGradient>
</defs>
</svg>
