<svg width="100%" height="100%" viewBox="0 0 23 23" fill="none" xmlns="http://www.w3.org/2000/svg">
<path fill-rule="evenodd" clip-rule="evenodd" d="M1.73047 14.5554C1.73047 9.19024 5.9951 4.92561 11.3603 4.92561C16.7255 4.92561 20.9901 9.19024 20.9901 14.5554H19.6144C19.6144 10.0157 15.9 6.3013 11.3603 6.3013C6.82051 6.3013 3.10616 10.0157 3.10616 14.5554H1.73047ZM7.23321 14.5554C7.23321 12.2168 9.02161 10.4284 11.3603 10.4284C13.6989 10.4284 15.4873 12.2168 15.4873 14.5554C15.4873 16.8941 13.6989 18.6825 11.3603 18.6825C9.02161 18.6825 7.23321 16.8941 7.23321 14.5554ZM8.6089 14.5554C8.6089 16.0687 9.84702 17.3068 11.3603 17.3068C12.8735 17.3068 14.1116 16.0687 14.1116 14.5554C14.1116 13.0422 12.8735 11.804 11.3603 11.804C9.84702 11.804 8.6089 13.0422 8.6089 14.5554Z" fill="#818181"/>
</svg>
