<svg width="24" height="24" viewBox="0 0 24 24" fill="none" xmlns="http://www.w3.org/2000/svg">
<g clip-path="url(#clip0_105_106)">
<path d="M23.6252 12.0001C23.6252 5.57819 18.4221 0.375061 12.0002 0.375061C5.57837 0.375061 0.375244 5.57819 0.375244 12.0001C0.375244 17.8023 4.62634 22.6116 10.1838 23.4844V15.3605H7.23071V12.0001H10.1838V9.43881C10.1838 6.52553 11.9182 4.91631 14.5746 4.91631C15.8468 4.91631 17.1771 5.14319 17.1771 5.14319V8.00256H15.7109C14.2671 8.00256 13.8167 8.89881 13.8167 9.81803V12.0001H17.0407L16.5251 15.3605H13.8167V23.4844C19.3741 22.6116 23.6252 17.8023 23.6252 12.0001Z" fill="#818181"/>
</g>
<defs>
<clipPath id="clip0_105_106">
<rect width="24" height="24" fill="white"/>
</clipPath>
</defs>
</svg>
