<svg width="24" height="25" viewBox="0 0 24 25" fill="none" xmlns="http://www.w3.org/2000/svg">
<g clip-path="url(#clip0_105_108)">
<path d="M23.4377 13.0219C23.4377 19.6547 18.8956 24.375 12.1877 24.375C5.75649 24.375 0.562744 19.1812 0.562744 12.75C0.562744 6.31875 5.75649 1.125 12.1877 1.125C15.319 1.125 17.9534 2.27344 19.9831 4.16719L16.819 7.20938C12.6799 3.21563 4.98306 6.21563 4.98306 12.75C4.98306 16.8047 8.22212 20.0906 12.1877 20.0906C16.7909 20.0906 18.5159 16.7906 18.7877 15.0797H12.1877V11.0812H23.2549C23.3627 11.6766 23.4377 12.2484 23.4377 13.0219Z" fill="#818181"/>
</g>
<defs>
<clipPath id="clip0_105_108">
<rect width="24" height="24" fill="white" transform="translate(0 0.750031)"/>
</clipPath>
</defs>
</svg>
