<svg width="24" height="25" viewBox="0 0 24 25" fill="none" xmlns="http://www.w3.org/2000/svg">
<path d="M12.0048 7.3594C9.02354 7.3594 6.61885 9.76409 6.61885 12.7453C6.61885 15.7266 9.02354 18.1313 12.0048 18.1313C14.986 18.1313 17.3907 15.7266 17.3907 12.7453C17.3907 9.76409 14.986 7.3594 12.0048 7.3594ZM12.0048 16.2469C10.0782 16.2469 8.50322 14.6766 8.50322 12.7453C8.50322 10.8141 10.0735 9.24378 12.0048 9.24378C13.936 9.24378 15.5063 10.8141 15.5063 12.7453C15.5063 14.6766 13.9313 16.2469 12.0048 16.2469ZM18.8673 7.13909C18.8673 7.83753 18.3048 8.39534 17.611 8.39534C16.9126 8.39534 16.3548 7.83284 16.3548 7.13909C16.3548 6.44534 16.9173 5.88284 17.611 5.88284C18.3048 5.88284 18.8673 6.44534 18.8673 7.13909ZM22.4345 8.41409C22.3548 6.73128 21.9704 5.24065 20.7376 4.01252C19.5095 2.7844 18.0189 2.40002 16.336 2.31565C14.6017 2.21721 9.40322 2.21721 7.66885 2.31565C5.99072 2.39534 4.5001 2.77971 3.26729 4.00784C2.03447 5.23596 1.65479 6.72659 1.57041 8.4094C1.47197 10.1438 1.47197 15.3422 1.57041 17.0766C1.6501 18.7594 2.03447 20.25 3.26729 21.4782C4.5001 22.7063 5.98604 23.0907 7.66885 23.175C9.40322 23.2735 14.6017 23.2735 16.336 23.175C18.0189 23.0953 19.5095 22.711 20.7376 21.4782C21.9657 20.25 22.3501 18.7594 22.4345 17.0766C22.5329 15.3422 22.5329 10.1485 22.4345 8.41409ZM20.1939 18.9375C19.8282 19.8563 19.1204 20.5641 18.197 20.9344C16.8142 21.4828 13.5329 21.3563 12.0048 21.3563C10.4767 21.3563 7.19072 21.4782 5.8126 20.9344C4.89385 20.5688 4.18604 19.861 3.81572 18.9375C3.26729 17.5547 3.39385 14.2735 3.39385 12.7453C3.39385 11.2172 3.27197 7.93128 3.81572 6.55315C4.18135 5.6344 4.88916 4.92659 5.8126 4.55627C7.19541 4.00784 10.4767 4.1344 12.0048 4.1344C13.5329 4.1344 16.8189 4.01252 18.197 4.55627C19.1157 4.9219 19.8235 5.62971 20.1939 6.55315C20.7423 7.93596 20.6157 11.2172 20.6157 12.7453C20.6157 14.2735 20.7423 17.5594 20.1939 18.9375Z" fill="#818181"/>
</svg>
