<svg width="24" height="25" viewBox="0 0 24 25" fill="none" xmlns="http://www.w3.org/2000/svg">
<g clip-path="url(#clip0_105_110)">
<path d="M21.5328 7.86166C21.5481 8.07485 21.5481 8.28808 21.5481 8.50127C21.5481 15.0038 16.5989 22.4962 7.55317 22.4962C4.76636 22.4962 2.17755 21.689 -0.00012207 20.2881C0.395831 20.3337 0.776503 20.349 1.18769 20.349C3.48714 20.349 5.60393 19.5723 7.29428 18.2475C5.13185 18.2018 3.31966 16.7855 2.69528 14.8363C2.99988 14.8819 3.30443 14.9124 3.62425 14.9124C4.06586 14.9124 4.50752 14.8515 4.91866 14.7449C2.66486 14.288 0.974456 12.3084 0.974456 9.9175V9.85661C1.62925 10.2221 2.39074 10.4505 3.19778 10.4809C1.87291 9.59768 1.00492 8.09008 1.00492 6.38449C1.00492 5.4708 1.24853 4.63324 1.67496 3.90227C4.09628 6.88703 7.73589 8.83624 11.8171 9.04947C11.7409 8.68399 11.6952 8.30332 11.6952 7.9226C11.6952 5.21191 13.8881 3.00381 16.614 3.00381C18.0303 3.00381 19.3094 3.59772 20.2079 4.55711C21.3196 4.34392 22.3856 3.93274 23.3298 3.3693C22.9642 4.51146 22.1876 5.47085 21.1673 6.07994C22.1572 5.97339 23.1166 5.69922 23.9998 5.31855C23.3298 6.29313 22.4922 7.16111 21.5328 7.86166Z" fill="#818181"/>
</g>
<defs>
<clipPath id="clip0_105_110">
<rect width="24" height="24" fill="white" transform="translate(-0.00012207 0.750031)"/>
</clipPath>
</defs>
</svg>
